<?xml version="1.0" standalone="no"?><!DOCTYPE svg PUBLIC "-//W3C//DTD SVG 1.1//EN" "http://www.w3.org/Graphics/SVG/1.1/DTD/svg11.dtd"><svg t="1628931503498" class="icon" viewBox="0 0 1024 1024" version="1.1" xmlns="http://www.w3.org/2000/svg" p-id="3167" xmlns:xlink="http://www.w3.org/1999/xlink" width="200" height="200"><defs><style type="text/css"></style></defs><path d="M610.8 443.8h3.6c-12.2-65-75.8-114.5-152.3-114.5-85.3 0-154.5 61.5-154.5 137.3 0 32.8 12.9 62.8 34.5 86.4v62.3l47.8-27.4c21.6 10.2 46.1 15.9 72.2 15.9 3 0 6.1-0.1 9.1-0.2-2.2-9.1-3.3-18.6-3.3-28.4-0.2-72.4 63.9-131.4 142.9-131.4z m-97.3-34.3c12.6 0 22.9 10.2 22.9 22.9 0 12.6-10.2 22.9-22.9 22.9s-22.9-10.2-22.9-22.9c0-12.6 10.3-22.9 22.9-22.9z m-103 45.8c-12.6 0-22.9-10.2-22.9-22.9 0-12.6 10.2-22.9 22.9-22.9s22.9 10.2 22.9 22.9c0 12.6-10.2 22.9-22.9 22.9z m200.3 11.4c-66.4 0-120.2 48.7-120.2 108.7s53.8 108.7 120.2 108.7c12.8 0 25.1-1.8 36.7-5.2l49 28.1v-55.4c21.3-19.6 34.5-46.5 34.5-76.2-0.1-60-53.9-108.7-120.2-108.7z m-34.4 91.6c-9.5 0-17.2-7.7-17.2-17.2s7.7-17.2 17.2-17.2 17.2 7.7 17.2 17.2-7.7 17.2-17.2 17.2z m80.1 0c-9.5 0-17.2-7.7-17.2-17.2s7.7-17.2 17.2-17.2 17.2 7.7 17.2 17.2-7.7 17.2-17.2 17.2zM513.5 112C292.3 112 113 291.3 113 512.5S292.3 913 513.5 913 914 733.7 914 512.5 734.7 112 513.5 112z m0 766.7c-202.2 0-366.2-163.9-366.2-366.2 0-202.2 163.9-366.2 366.2-366.2 202.2 0 366.2 163.9 366.2 366.2 0 202.2-164 366.2-366.2 366.2z" p-id="3168" fill="#8a8a8a"></path></svg>